<?xml version="1.0" encoding="UTF-8" standalone="no" ?>
<!DOCTYPE svg PUBLIC "-//W3C//DTD SVG 1.1//EN" "http://www.w3.org/Graphics/SVG/1.1/DTD/svg11.dtd">
<svg xmlns="http://www.w3.org/2000/svg" xmlns:xlink="http://www.w3.org/1999/xlink" version="1.1" width="1080" height="1080" viewBox="0 0 1080 1080" xml:space="preserve">
<desc>Created with Fabric.js 5.2.4</desc>
<defs>
</defs>
<g transform="matrix(1 0 0 1 540 540)" id="e8e095e5-0338-40e7-9376-801d9f58d872"  >
<rect style="stroke: none; stroke-width: 1; stroke-dasharray: none; stroke-linecap: butt; stroke-dashoffset: 0; stroke-linejoin: miter; stroke-miterlimit: 4; fill: rgb(255,255,255); fill-rule: nonzero; opacity: 1;" vector-effect="non-scaling-stroke"  x="-540" y="-540" rx="0" ry="0" width="1080" height="1080" />
</g>
<g transform="matrix(Infinity NaN NaN Infinity 0 0)" id="3157fbae-a6da-4044-ba09-2aa2be6146d3"  >
</g>
<g transform="matrix(2.95 0 0 2.95 540 540)"  >
<g style="" vector-effect="non-scaling-stroke"   >
		<g transform="matrix(1 0 0 1 25.98 -89.43)" clip-path="url(#CLIPPATH_3)"  >
<clipPath id="CLIPPATH_3" >
	<path transform="matrix(1 0 0 1 242.3 97.25) translate(-407.5, -188.5)" id="a" d="M 0 0 L 815 0 L 815 377 L 0 377 z" stroke-linecap="round" />
</clipPath>
<path style="stroke: none; stroke-width: 1; stroke-dasharray: none; stroke-linecap: butt; stroke-dashoffset: 0; stroke-linejoin: miter; stroke-miterlimit: 4; fill: rgb(25,25,21); fill-rule: nonzero; opacity: 1;" vector-effect="non-scaling-stroke"  transform=" translate(-165.2, -91.25)" d="M 165.2 155.49 C 200.68153375287932 155.49 229.445 126.72653375287933 229.445 91.245 C 229.445 55.763466247120675 200.68153375287932 27 165.2 27 C 129.71846624712066 27 100.95499999999998 55.763466247120675 100.95499999999998 91.245 C 100.95499999999998 126.72653375287933 129.71846624712066 155.49 165.2 155.49 Z" stroke-linecap="round" />
</g>
		<g transform="matrix(1 0 0 1 0.16 -32.34)" clip-path="url(#CLIPPATH_4)"  >
<clipPath id="CLIPPATH_4" >
	<path transform="matrix(1 0 0 1 268.12 40.17) translate(-407.5, -188.5)" id="a" d="M 0 0 L 815 0 L 815 377 L 0 377 z" stroke-linecap="round" />
</clipPath>
<path style="stroke: none; stroke-width: 1; stroke-dasharray: none; stroke-linecap: butt; stroke-dashoffset: 0; stroke-linejoin: miter; stroke-miterlimit: 4; fill: rgb(25,25,21); fill-rule: evenodd; opacity: 1;" vector-effect="non-scaling-stroke"  transform=" translate(-139.38, -148.33)" d="M 195.3 234.81 L 195.3 193.97 L 164.05 193.97 L 195.29000000000002 234.81 Z M 156.04 27.01 C 158.92 27.020000000000003 161.79 27.21 164.64999999999998 27.55 C 165.77999999999997 27.68 166.64999999999998 45.04 167.30999999999997 66.91 C 165.90999999999997 66.67999999999999 164.50999999999996 66.56 163.07999999999998 66.56 L 83.5 66.56 L 83.5 29.4 C 83.5 27.82 84.4 27.009999999999998 86.2 27.009999999999998 L 156.04000000000002 27.009999999999998 Z M 168.37 115.27000000000001 C 168.12 99.85000000000001 167.77 82.27000000000001 167.31 66.91000000000001 C 178.95046566566165 68.88768062231442 187.54989770746826 78.84787235322108 187.80863845203453 90.6523085864525 C 188.06737919660083 102.45674481968395 179.91263024853455 112.7841704597979 168.37 115.27000000000001 Z M 122.52000000000001 155.77 L 155.91000000000003 155.77 C 158.05 155.77 168.91000000000003 155.29000000000002 168.91000000000003 155.29000000000002 C 168.91000000000003 155.29000000000002 168.74000000000004 137.54000000000002 168.37000000000003 115.27000000000001 C 167.84000000000003 115.39000000000001 167.30000000000004 115.49000000000001 166.75000000000003 115.57000000000001 C 166.42000000000002 115.74000000000001 166.06000000000003 115.83000000000001 165.69000000000003 115.84 L 83.46 115.84 L 83.46 267.28 C 83.46 268.89 84.36 269.65999999999997 86.16 269.65999999999997 L 145.74 269.65999999999997 C 147.53 269.65999999999997 148.44 268.85999999999996 148.44 267.28 L 148.44 265.01 L 99 200.38 C 92.4392763857264 191.77001714944006 91.47069660765415 180.13546146058158 96.51740706352948 170.55915671373992 C 101.56411751940479 160.9828519668983 111.70898876499677 155.20508247738067 122.51999999999998 155.75 Z" stroke-linecap="round" />
</g>
		<g transform="matrix(1 0 0 1 15.42 36.93)" clip-path="url(#CLIPPATH_5)"  >
<clipPath id="CLIPPATH_5" >
	<path transform="matrix(1 0 0 1 252.86 -29.1) translate(-407.5, -188.5)" id="a" d="M 0 0 L 815 0 L 815 377 L 0 377 z" stroke-linecap="round" />
</clipPath>
<path style="stroke: none; stroke-width: 1; stroke-dasharray: none; stroke-linecap: butt; stroke-dashoffset: 0; stroke-linejoin: miter; stroke-miterlimit: 4; fill: rgb(25,25,21); fill-rule: nonzero; opacity: 1;" vector-effect="non-scaling-stroke"  transform=" translate(-154.64, -217.6)" d="M 173.39 269.82 C 167.7853347619716 269.8359201587659 162.4952782561369 267.23158464820114 159.08999999999997 262.78 L 106.78999999999998 194.40999999999997 C 100.77009622684433 186.52337377241625 102.28337377241624 175.24990377315564 110.16999999999996 169.22999999999996 C 118.05662622758368 163.2100962268443 129.3300962268443 164.72337377241624 135.34999999999997 172.60999999999996 L 187.66999999999996 240.97999999999996 C 191.80701428000296 246.40071307847953 192.51527037165744 253.69742981186835 189.49798464880635 259.8125752965504 C 186.48069892595527 265.92772078123244 180.25900255961133 269.8051163122177 173.43999999999997 269.81999999999994 L 173.38999999999996 269.81999999999994 Z M 156.06 165.4 L 196.41 165.4 C 199.84634294102787 165.24085719285495 203.09200178054638 166.98351974105145 204.85776530823952 169.93578300940788 C 206.62352883593266 172.88804627776435 206.62352883593266 176.57195372223566 204.85776530823952 179.52421699059212 C 203.09200178054638 182.47648025894858 199.84634294102784 184.21914280714506 196.41 184.06 L 156.06 184.06 C 152.65206396576025 184.1715558680011 149.4541554038822 182.41711631875515 147.71716761205712 179.4829475887388 C 145.98017982023205 176.54877885872241 145.98017982023205 172.90122114127757 147.7171676120571 169.9670524112612 C 149.45415540388217 167.03288368124484 152.65206396576025 165.2784441319989 156.06 165.39 Z" stroke-linecap="round" />
</g>
		<g transform="matrix(1 0 0 1 -6.5 -89.32)" clip-path="url(#CLIPPATH_6)"  >
<clipPath id="CLIPPATH_6" >
	<path transform="matrix(1 0 0 1 274.78 97.14) translate(-407.5, -188.5)" id="a" d="M 0 0 L 815 0 L 815 377 L 0 377 z" stroke-linecap="round" />
</clipPath>
<path style="stroke: none; stroke-width: 1; stroke-dasharray: none; stroke-linecap: butt; stroke-dashoffset: 0; stroke-linejoin: miter; stroke-miterlimit: 4; fill: rgb(156,157,157); fill-rule: nonzero; opacity: 1;" vector-effect="non-scaling-stroke"  transform=" translate(-132.72, -91.36)" d="M 165.08 40.72 L 99.65 40.72 C 71.95704255843059 41.10914528193226 49.7116705698567 63.66930853163211 49.7116705698567 91.365 C 49.7116705698567 119.06069146836788 71.95704255843059 141.62085471806773 99.65 142.01 L 165.08 142.01 C 193.0532225789297 142.01 215.73000000000002 119.33322257892968 215.73000000000002 91.35999999999999 C 215.73000000000002 63.386777421070306 193.0532225789297 40.709999999999994 165.08 40.709999999999994 Z" stroke-linecap="round" />
</g>
		<g transform="matrix(1 0 0 1 -6.5 -89.32)" clip-path="url(#CLIPPATH_7)"  >
<clipPath id="CLIPPATH_7" >
	<path transform="matrix(1 0 0 1 274.78 97.14) translate(-407.5, -188.5)" id="a" d="M 0 0 L 815 0 L 815 377 L 0 377 z" stroke-linecap="round" />
</clipPath>
<path style="stroke: none; stroke-width: 1; stroke-dasharray: none; stroke-linecap: butt; stroke-dashoffset: 0; stroke-linejoin: miter; stroke-miterlimit: 4; fill: rgb(0,168,253); fill-rule: nonzero; opacity: 1;" vector-effect="non-scaling-stroke"  transform=" translate(-132.72, -91.36)" d="M 165.08 40.72 L 99.65 40.72 C 71.95704255843059 41.10914528193226 49.7116705698567 63.66930853163211 49.7116705698567 91.365 C 49.7116705698567 119.06069146836788 71.95704255843059 141.62085471806773 99.65 142.01 L 165.08 142.01 C 193.0532225789297 142.01 215.73000000000002 119.33322257892968 215.73000000000002 91.35999999999999 C 215.73000000000002 63.386777421070306 193.0532225789297 40.709999999999994 165.08 40.709999999999994 Z" stroke-linecap="round" />
</g>
		<g transform="matrix(1 0 0 1 -6.85 -89.31)" clip-path="url(#CLIPPATH_8)"  >
<clipPath id="CLIPPATH_8" >
	<path transform="matrix(1 0 0 1 275.13 97.13) translate(-407.5, -188.5)" id="a" d="M 0 0 L 815 0 L 815 377 L 0 377 z" stroke-linecap="round" />
</clipPath>
<path style="stroke: none; stroke-width: 1; stroke-dasharray: none; stroke-linecap: butt; stroke-dashoffset: 0; stroke-linejoin: miter; stroke-miterlimit: 4; fill: rgb(25,25,21); fill-rule: nonzero; opacity: 1;" vector-effect="non-scaling-stroke"  transform=" translate(-132.37, -91.37)" d="M 99.6 123.48 C 82.178249555044 123.04516905442826 68.28143621081148 108.79717609131069 68.28143621081148 91.37 C 68.28143621081148 73.94282390868932 82.178249555044 59.69483094557175 99.6 59.260000000000005 L 165.14 59.260000000000005 C 182.56175044495598 59.694830945571745 196.4585637891885 73.9428239086893 196.4585637891885 91.37 C 196.4585637891885 108.79717609131069 182.56175044495598 123.04516905442826 165.14 123.48 L 99.6 123.48 Z" stroke-linecap="round" />
</g>
		<g transform="matrix(1 0 0 1 -6.85 -88.62)" clip-path="url(#CLIPPATH_9)"  >
<clipPath id="CLIPPATH_9" >
	<path transform="matrix(1 0 0 1 275.13 96.44) translate(-407.5, -188.5)" id="a" d="M 0 0 L 815 0 L 815 377 L 0 377 z" stroke-linecap="round" />
</clipPath>
<path style="stroke: none; stroke-width: 1; stroke-dasharray: none; stroke-linecap: butt; stroke-dashoffset: 0; stroke-linejoin: miter; stroke-miterlimit: 4; fill: rgb(255,255,255); fill-rule: nonzero; opacity: 1;" vector-effect="non-scaling-stroke"  transform=" translate(-132.37, -92.06)" d="M 156.25 105.44 C 163.64233137648517 105.44 169.635 99.44733137648517 169.635 92.055 C 169.635 84.66266862351483 163.64233137648517 78.67 156.25 78.67 C 148.85766862351483 78.67 142.865 84.66266862351483 142.865 92.055 C 142.865 99.44733137648517 148.85766862351483 105.44 156.25 105.44 Z M 108.48 105.44 C 115.87233137648518 105.44 121.86500000000001 99.44733137648517 121.86500000000001 92.055 C 121.86500000000001 84.66266862351483 115.87233137648518 78.67 108.48 78.67 C 101.08766862351483 78.67 95.095 84.66266862351483 95.095 92.055 C 95.095 99.44733137648517 101.08766862351483 105.44 108.48 105.44 Z" stroke-linecap="round" />
</g>
		<g transform="matrix(1 0 0 1 0 126.33)" clip-path="url(#CLIPPATH_10)"  >
<clipPath id="CLIPPATH_10" >
	<path transform="matrix(1 0 0 1 268.28 -118.51) translate(-407.5, -188.5)" id="a" d="M 0 0 L 815 0 L 815 377 L 0 377 z" stroke-linecap="round" />
</clipPath>
<path style="stroke: none; stroke-width: 1; stroke-dasharray: none; stroke-linecap: butt; stroke-dashoffset: 0; stroke-linejoin: miter; stroke-miterlimit: 4; fill: rgb(25,25,21); fill-rule: nonzero; opacity: 1;" vector-effect="non-scaling-stroke"  transform=" translate(-139.22, -307.01)" d="M 202.09 279.66 L 76.35 279.66 C 66.4559264566607 279.4707847996327 57.231366260388754 284.64093329938 52.22890075604497 293.17930741573883 C 47.22643525170119 301.7176815320977 47.22643525170118 312.2923184679023 52.228900756044965 320.8306925842612 C 57.23136626038874 329.36906670062007 66.45592645666069 334.5392152003673 76.34999999999998 334.35 L 202.08999999999997 334.35 C 211.98407354333926 334.5392152003673 221.20863373961123 329.36906670062007 226.211099243955 320.8306925842612 C 231.21356474829878 312.29231846790236 231.21356474829878 301.7176815320977 226.211099243955 293.17930741573883 C 221.20863373961123 284.64093329938 211.98407354333926 279.4707847996327 202.08999999999997 279.66 Z" stroke-linecap="round" />
</g>
</g>
</g>
</svg>